<mxfile host="app.diagrams.net" modified="2023-12-01T10:44:35.165Z" agent="Mozilla/5.0 (Windows NT 10.0; Win64; x64; rv:109.0) Gecko/20100101 Firefox/119.0" etag="FV_i0F1RXeyVagSR3lqH" version="21.7.5" type="device">
  <diagram name="Page-1" id="LUae1eWE8xE3lNLtOWuE">
    <mxGraphModel dx="1153" dy="578" grid="1" gridSize="10" guides="1" tooltips="1" connect="1" arrows="1" fold="1" page="1" pageScale="1" pageWidth="850" pageHeight="1100" math="0" shadow="0">
      <root>
        <mxCell id="0" />
        <mxCell id="1" parent="0" />
        <mxCell id="ASz1Vj4Uva5CpgqjVEsY-1" value="Petugas Gudang" style="shape=umlActor;verticalLabelPosition=bottom;verticalAlign=top;html=1;outlineConnect=0;" parent="1" vertex="1">
          <mxGeometry x="30" y="150" width="40" height="80" as="geometry" />
        </mxCell>
        <mxCell id="ASz1Vj4Uva5CpgqjVEsY-6" value="" style="edgeStyle=orthogonalEdgeStyle;rounded=0;orthogonalLoop=1;jettySize=auto;html=1;" parent="1" source="ASz1Vj4Uva5CpgqjVEsY-2" target="ASz1Vj4Uva5CpgqjVEsY-5" edge="1">
          <mxGeometry relative="1" as="geometry" />
        </mxCell>
        <mxCell id="W981Iqxm0oVUKpbk8fy8-9" style="edgeStyle=orthogonalEdgeStyle;rounded=0;orthogonalLoop=1;jettySize=auto;html=1;exitX=0.75;exitY=1;exitDx=0;exitDy=0;entryX=0;entryY=0.25;entryDx=0;entryDy=0;strokeWidth=2;fillColor=#f8cecc;strokeColor=#b85450;" parent="1" source="ASz1Vj4Uva5CpgqjVEsY-3" target="ASz1Vj4Uva5CpgqjVEsY-5" edge="1">
          <mxGeometry relative="1" as="geometry">
            <Array as="points">
              <mxPoint x="160" y="210" />
              <mxPoint x="200" y="210" />
              <mxPoint x="200" y="175" />
            </Array>
          </mxGeometry>
        </mxCell>
        <mxCell id="ASz1Vj4Uva5CpgqjVEsY-3" value="Login Success" style="rounded=0;whiteSpace=wrap;html=1;direction=north;" parent="1" vertex="1">
          <mxGeometry x="110" y="140" width="50" height="120" as="geometry" />
        </mxCell>
        <mxCell id="ASz1Vj4Uva5CpgqjVEsY-4" value="" style="endArrow=classic;html=1;rounded=0;exitX=1;exitY=1;exitDx=0;exitDy=0;entryX=0;entryY=0.5;entryDx=0;entryDy=0;strokeWidth=2;fillColor=#f8cecc;strokeColor=#b85450;" parent="1" source="ASz1Vj4Uva5CpgqjVEsY-3" target="ASz1Vj4Uva5CpgqjVEsY-2" edge="1">
          <mxGeometry width="50" height="50" relative="1" as="geometry">
            <mxPoint x="370" y="170" as="sourcePoint" />
            <mxPoint x="420" y="120" as="targetPoint" />
          </mxGeometry>
        </mxCell>
        <mxCell id="W981Iqxm0oVUKpbk8fy8-8" style="edgeStyle=orthogonalEdgeStyle;rounded=0;orthogonalLoop=1;jettySize=auto;html=1;exitX=0;exitY=0.75;exitDx=0;exitDy=0;entryX=0.5;entryY=0;entryDx=0;entryDy=0;" parent="1" source="ASz1Vj4Uva5CpgqjVEsY-5" target="W981Iqxm0oVUKpbk8fy8-2" edge="1">
          <mxGeometry relative="1" as="geometry">
            <Array as="points">
              <mxPoint x="405" y="200" />
              <mxPoint x="275" y="200" />
            </Array>
          </mxGeometry>
        </mxCell>
        <mxCell id="W981Iqxm0oVUKpbk8fy8-13" style="edgeStyle=orthogonalEdgeStyle;rounded=0;orthogonalLoop=1;jettySize=auto;html=1;exitX=1;exitY=0.5;exitDx=0;exitDy=0;entryX=1;entryY=0.5;entryDx=0;entryDy=0;" parent="1" source="ASz1Vj4Uva5CpgqjVEsY-5" target="W981Iqxm0oVUKpbk8fy8-12" edge="1">
          <mxGeometry relative="1" as="geometry">
            <mxPoint x="555" y="320" as="targetPoint" />
          </mxGeometry>
        </mxCell>
        <mxCell id="ASz1Vj4Uva5CpgqjVEsY-5" value="&lt;p style=&quot;line-height: 50%;&quot;&gt;&lt;/p&gt;&lt;div&gt;TaskList&lt;br&gt;&lt;/div&gt;&lt;div style=&quot;font-size: 9px;&quot;&gt;&lt;font color=&quot;#ff0000&quot; style=&quot;font-size: 9px;&quot;&gt;- &lt;b&gt;&lt;font style=&quot;font-size: 9px;&quot;&gt;Penerimaan Barang&lt;/font&gt;&lt;/b&gt;&lt;/font&gt;&lt;/div&gt;&lt;div style=&quot;font-size: 9px;&quot;&gt;&lt;font color=&quot;#0000ff&quot; style=&quot;font-size: 9px;&quot;&gt;- &lt;b&gt;&lt;font style=&quot;font-size: 9px;&quot;&gt;Penempatan Barang&lt;/font&gt;&lt;/b&gt;&lt;/font&gt;&lt;/div&gt;&lt;p&gt;&lt;/p&gt;" style="rounded=1;whiteSpace=wrap;html=1;" parent="1" vertex="1">
          <mxGeometry x="405" y="160" width="120" height="60" as="geometry" />
        </mxCell>
        <mxCell id="W981Iqxm0oVUKpbk8fy8-11" style="edgeStyle=orthogonalEdgeStyle;rounded=0;orthogonalLoop=1;jettySize=auto;html=1;exitX=1;exitY=0.5;exitDx=0;exitDy=0;entryX=0;entryY=0.5;entryDx=0;entryDy=0;" parent="1" source="W981Iqxm0oVUKpbk8fy8-2" target="W981Iqxm0oVUKpbk8fy8-1" edge="1">
          <mxGeometry relative="1" as="geometry" />
        </mxCell>
        <mxCell id="W981Iqxm0oVUKpbk8fy8-6" value="Manual" style="swimlane;whiteSpace=wrap;html=1;fillColor=#f8cecc;strokeColor=#b85450;opacity=70;" parent="1" vertex="1">
          <mxGeometry x="200" y="60" width="150" height="300" as="geometry" />
        </mxCell>
        <mxCell id="W981Iqxm0oVUKpbk8fy8-2" value="Cek kondisi barang" style="ellipse;whiteSpace=wrap;html=1;" parent="W981Iqxm0oVUKpbk8fy8-6" vertex="1">
          <mxGeometry x="15" y="170" width="120" height="40" as="geometry" />
        </mxCell>
        <mxCell id="W981Iqxm0oVUKpbk8fy8-14" value="Tempel Label / QR" style="ellipse;whiteSpace=wrap;html=1;" parent="W981Iqxm0oVUKpbk8fy8-6" vertex="1">
          <mxGeometry x="15" y="240" width="120" height="40" as="geometry" />
        </mxCell>
        <mxCell id="W981Iqxm0oVUKpbk8fy8-10" value="System" style="swimlane;whiteSpace=wrap;html=1;fillColor=#d5e8d4;strokeColor=#82b366;opacity=70;" parent="1" vertex="1">
          <mxGeometry x="390" y="60" width="150" height="300" as="geometry" />
        </mxCell>
        <mxCell id="W981Iqxm0oVUKpbk8fy8-1" value="Input Penerimaan Barang" style="rounded=1;whiteSpace=wrap;html=1;" parent="W981Iqxm0oVUKpbk8fy8-10" vertex="1">
          <mxGeometry x="15" y="180" width="120" height="40" as="geometry" />
        </mxCell>
        <mxCell id="ASz1Vj4Uva5CpgqjVEsY-2" value="See Task Notif" style="rounded=1;whiteSpace=wrap;html=1;" parent="W981Iqxm0oVUKpbk8fy8-10" vertex="1">
          <mxGeometry x="15" y="40" width="120" height="40" as="geometry" />
        </mxCell>
        <mxCell id="W981Iqxm0oVUKpbk8fy8-12" value="Input Penempatan Barang" style="rounded=1;whiteSpace=wrap;html=1;" parent="W981Iqxm0oVUKpbk8fy8-10" vertex="1">
          <mxGeometry x="15" y="240" width="120" height="40" as="geometry" />
        </mxCell>
        <mxCell id="W981Iqxm0oVUKpbk8fy8-15" style="edgeStyle=orthogonalEdgeStyle;rounded=0;orthogonalLoop=1;jettySize=auto;html=1;exitX=0;exitY=0.5;exitDx=0;exitDy=0;entryX=1;entryY=0.5;entryDx=0;entryDy=0;" parent="1" source="W981Iqxm0oVUKpbk8fy8-12" target="W981Iqxm0oVUKpbk8fy8-14" edge="1">
          <mxGeometry relative="1" as="geometry" />
        </mxCell>
        <mxCell id="W981Iqxm0oVUKpbk8fy8-58" value="Output" style="swimlane;whiteSpace=wrap;html=1;fillColor=#e1d5e7;strokeColor=#9673a6;opacity=70;" parent="1" vertex="1">
          <mxGeometry x="580" y="60" width="150" height="300" as="geometry" />
        </mxCell>
        <mxCell id="W981Iqxm0oVUKpbk8fy8-59" value="QRCode / Barcode" style="rounded=1;whiteSpace=wrap;html=1;" parent="W981Iqxm0oVUKpbk8fy8-58" vertex="1">
          <mxGeometry x="15" y="130" width="120" height="40" as="geometry" />
        </mxCell>
        <mxCell id="W981Iqxm0oVUKpbk8fy8-62" value="Proses Penerimaan Barang (Usecase 1.1)" style="text;html=1;strokeColor=none;fillColor=none;align=center;verticalAlign=middle;whiteSpace=wrap;rounded=0;" parent="1" vertex="1">
          <mxGeometry x="320" y="10" width="160" height="30" as="geometry" />
        </mxCell>
        <mxCell id="W981Iqxm0oVUKpbk8fy8-63" style="edgeStyle=orthogonalEdgeStyle;rounded=0;orthogonalLoop=1;jettySize=auto;html=1;exitX=1;exitY=0.5;exitDx=0;exitDy=0;entryX=0;entryY=0.5;entryDx=0;entryDy=0;" parent="1" source="W981Iqxm0oVUKpbk8fy8-1" target="W981Iqxm0oVUKpbk8fy8-59" edge="1">
          <mxGeometry relative="1" as="geometry" />
        </mxCell>
        <mxCell id="miPyuxprOac5JMghwZEi-48" value="Petugas Gudang" style="shape=umlActor;verticalLabelPosition=bottom;verticalAlign=top;html=1;outlineConnect=0;" vertex="1" parent="1">
          <mxGeometry x="30" y="540" width="40" height="80" as="geometry" />
        </mxCell>
        <mxCell id="miPyuxprOac5JMghwZEi-49" value="" style="edgeStyle=orthogonalEdgeStyle;rounded=0;orthogonalLoop=1;jettySize=auto;html=1;" edge="1" parent="1" source="miPyuxprOac5JMghwZEi-62" target="miPyuxprOac5JMghwZEi-55">
          <mxGeometry relative="1" as="geometry" />
        </mxCell>
        <mxCell id="miPyuxprOac5JMghwZEi-50" style="edgeStyle=orthogonalEdgeStyle;rounded=0;orthogonalLoop=1;jettySize=auto;html=1;exitX=0.75;exitY=1;exitDx=0;exitDy=0;entryX=0;entryY=0.25;entryDx=0;entryDy=0;strokeWidth=2;fillColor=#f8cecc;strokeColor=#b85450;" edge="1" parent="1" source="miPyuxprOac5JMghwZEi-51" target="miPyuxprOac5JMghwZEi-55">
          <mxGeometry relative="1" as="geometry">
            <Array as="points">
              <mxPoint x="160" y="600" />
              <mxPoint x="200" y="600" />
              <mxPoint x="200" y="565" />
            </Array>
          </mxGeometry>
        </mxCell>
        <mxCell id="miPyuxprOac5JMghwZEi-51" value="Login Success" style="rounded=0;whiteSpace=wrap;html=1;direction=north;" vertex="1" parent="1">
          <mxGeometry x="110" y="530" width="50" height="120" as="geometry" />
        </mxCell>
        <mxCell id="miPyuxprOac5JMghwZEi-52" value="" style="endArrow=classic;html=1;rounded=0;exitX=1;exitY=1;exitDx=0;exitDy=0;entryX=0;entryY=0.5;entryDx=0;entryDy=0;strokeWidth=2;fillColor=#f8cecc;strokeColor=#b85450;" edge="1" parent="1" source="miPyuxprOac5JMghwZEi-51" target="miPyuxprOac5JMghwZEi-62">
          <mxGeometry width="50" height="50" relative="1" as="geometry">
            <mxPoint x="370" y="560" as="sourcePoint" />
            <mxPoint x="420" y="510" as="targetPoint" />
          </mxGeometry>
        </mxCell>
        <mxCell id="miPyuxprOac5JMghwZEi-53" style="edgeStyle=orthogonalEdgeStyle;rounded=0;orthogonalLoop=1;jettySize=auto;html=1;exitX=0;exitY=0.75;exitDx=0;exitDy=0;entryX=0.5;entryY=0;entryDx=0;entryDy=0;" edge="1" parent="1" source="miPyuxprOac5JMghwZEi-55" target="miPyuxprOac5JMghwZEi-58">
          <mxGeometry relative="1" as="geometry">
            <Array as="points">
              <mxPoint x="405" y="590" />
              <mxPoint x="275" y="590" />
            </Array>
          </mxGeometry>
        </mxCell>
        <mxCell id="miPyuxprOac5JMghwZEi-54" style="edgeStyle=orthogonalEdgeStyle;rounded=0;orthogonalLoop=1;jettySize=auto;html=1;exitX=1;exitY=0.5;exitDx=0;exitDy=0;entryX=1;entryY=0.5;entryDx=0;entryDy=0;" edge="1" parent="1" source="miPyuxprOac5JMghwZEi-55" target="miPyuxprOac5JMghwZEi-63">
          <mxGeometry relative="1" as="geometry">
            <mxPoint x="555" y="710" as="targetPoint" />
          </mxGeometry>
        </mxCell>
        <mxCell id="miPyuxprOac5JMghwZEi-55" value="&lt;p style=&quot;line-height: 50%;&quot;&gt;&lt;/p&gt;&lt;div&gt;TaskList&lt;br&gt;&lt;/div&gt;&lt;div&gt;&lt;font style=&quot;font-size: 8px;&quot;&gt;- Penerimaan Barang&lt;/font&gt;&lt;/div&gt;&lt;div&gt;&lt;font style=&quot;font-size: 8px;&quot;&gt;- Penempatan Barang&lt;/font&gt;&lt;/div&gt;&lt;div&gt;&lt;font style=&quot;font-size: 8px;&quot;&gt;- Tempel Label / QR&lt;br&gt;&lt;/font&gt;&lt;/div&gt;&lt;p&gt;&lt;/p&gt;" style="rounded=1;whiteSpace=wrap;html=1;" vertex="1" parent="1">
          <mxGeometry x="405" y="550" width="120" height="60" as="geometry" />
        </mxCell>
        <mxCell id="miPyuxprOac5JMghwZEi-56" style="edgeStyle=orthogonalEdgeStyle;rounded=0;orthogonalLoop=1;jettySize=auto;html=1;exitX=1;exitY=0.5;exitDx=0;exitDy=0;entryX=0;entryY=0.5;entryDx=0;entryDy=0;" edge="1" parent="1" source="miPyuxprOac5JMghwZEi-58" target="miPyuxprOac5JMghwZEi-61">
          <mxGeometry relative="1" as="geometry" />
        </mxCell>
        <mxCell id="miPyuxprOac5JMghwZEi-57" value="Manual" style="swimlane;whiteSpace=wrap;html=1;fillColor=#f8cecc;strokeColor=#b85450;opacity=70;" vertex="1" parent="1">
          <mxGeometry x="200" y="450" width="150" height="300" as="geometry" />
        </mxCell>
        <mxCell id="miPyuxprOac5JMghwZEi-58" value="Cek kondisi barang" style="ellipse;whiteSpace=wrap;html=1;" vertex="1" parent="miPyuxprOac5JMghwZEi-57">
          <mxGeometry x="15" y="170" width="120" height="40" as="geometry" />
        </mxCell>
        <mxCell id="miPyuxprOac5JMghwZEi-59" value="Tempel Label / QR" style="ellipse;whiteSpace=wrap;html=1;" vertex="1" parent="miPyuxprOac5JMghwZEi-57">
          <mxGeometry x="15" y="240" width="120" height="40" as="geometry" />
        </mxCell>
        <mxCell id="miPyuxprOac5JMghwZEi-60" value="System" style="swimlane;whiteSpace=wrap;html=1;fillColor=#d5e8d4;strokeColor=#82b366;opacity=70;" vertex="1" parent="1">
          <mxGeometry x="390" y="450" width="150" height="300" as="geometry" />
        </mxCell>
        <mxCell id="miPyuxprOac5JMghwZEi-61" value="Input Penerimaan Barang" style="rounded=1;whiteSpace=wrap;html=1;" vertex="1" parent="miPyuxprOac5JMghwZEi-60">
          <mxGeometry x="15" y="180" width="120" height="40" as="geometry" />
        </mxCell>
        <mxCell id="miPyuxprOac5JMghwZEi-62" value="See Task Notif" style="rounded=1;whiteSpace=wrap;html=1;" vertex="1" parent="miPyuxprOac5JMghwZEi-60">
          <mxGeometry x="15" y="40" width="120" height="40" as="geometry" />
        </mxCell>
        <mxCell id="miPyuxprOac5JMghwZEi-63" value="Input Penempatan Barang" style="rounded=1;whiteSpace=wrap;html=1;" vertex="1" parent="miPyuxprOac5JMghwZEi-60">
          <mxGeometry x="15" y="240" width="120" height="40" as="geometry" />
        </mxCell>
        <mxCell id="miPyuxprOac5JMghwZEi-64" style="edgeStyle=orthogonalEdgeStyle;rounded=0;orthogonalLoop=1;jettySize=auto;html=1;exitX=0;exitY=0.5;exitDx=0;exitDy=0;entryX=1;entryY=0.5;entryDx=0;entryDy=0;" edge="1" parent="1" source="miPyuxprOac5JMghwZEi-63" target="miPyuxprOac5JMghwZEi-59">
          <mxGeometry relative="1" as="geometry" />
        </mxCell>
        <mxCell id="miPyuxprOac5JMghwZEi-65" value="Output" style="swimlane;whiteSpace=wrap;html=1;fillColor=#e1d5e7;strokeColor=#9673a6;opacity=70;" vertex="1" parent="1">
          <mxGeometry x="580" y="450" width="150" height="300" as="geometry" />
        </mxCell>
        <mxCell id="miPyuxprOac5JMghwZEi-66" value="QRCode / Barcode" style="rounded=1;whiteSpace=wrap;html=1;" vertex="1" parent="miPyuxprOac5JMghwZEi-65">
          <mxGeometry x="15" y="180" width="120" height="40" as="geometry" />
        </mxCell>
        <mxCell id="miPyuxprOac5JMghwZEi-67" value="&lt;div&gt;Proses Pengeluaran Barang&lt;/div&gt;&lt;div&gt;(Usecase 1.2)&lt;/div&gt;" style="text;html=1;strokeColor=none;fillColor=none;align=center;verticalAlign=middle;whiteSpace=wrap;rounded=0;" vertex="1" parent="1">
          <mxGeometry x="320" y="400" width="160" height="30" as="geometry" />
        </mxCell>
        <mxCell id="miPyuxprOac5JMghwZEi-68" style="edgeStyle=orthogonalEdgeStyle;rounded=0;orthogonalLoop=1;jettySize=auto;html=1;exitX=1;exitY=0.5;exitDx=0;exitDy=0;entryX=0;entryY=0.5;entryDx=0;entryDy=0;" edge="1" parent="1" source="miPyuxprOac5JMghwZEi-61" target="miPyuxprOac5JMghwZEi-66">
          <mxGeometry relative="1" as="geometry" />
        </mxCell>
        <mxCell id="miPyuxprOac5JMghwZEi-71" value="Penjelasan" style="swimlane;whiteSpace=wrap;html=1;opacity=70;" vertex="1" parent="1">
          <mxGeometry x="810" y="15" width="310" height="395" as="geometry" />
        </mxCell>
        <mxCell id="miPyuxprOac5JMghwZEi-73" value="&lt;div align=&quot;left&quot;&gt;1) User melihat notifikasi yang mucul pada aplikasi, ketika notifikasi dipilih user akan masuk ke menu Tasklist&lt;/div&gt;" style="text;html=1;strokeColor=none;fillColor=none;align=left;verticalAlign=middle;whiteSpace=wrap;rounded=0;" vertex="1" parent="miPyuxprOac5JMghwZEi-71">
          <mxGeometry y="30" width="310" height="30" as="geometry" />
        </mxCell>
        <mxCell id="miPyuxprOac5JMghwZEi-74" value="&lt;div align=&quot;left&quot;&gt;2) User juga bisa langsung membuka daftar tugas yang bersangkutan dengan masuk ke menu Tasklist&lt;br&gt;&lt;/div&gt;" style="text;html=1;strokeColor=none;fillColor=none;align=left;verticalAlign=middle;whiteSpace=wrap;rounded=0;" vertex="1" parent="miPyuxprOac5JMghwZEi-71">
          <mxGeometry y="67" width="310" height="30" as="geometry" />
        </mxCell>
        <mxCell id="miPyuxprOac5JMghwZEi-75" value="&lt;div align=&quot;left&quot;&gt;&amp;nbsp;&amp;nbsp; &lt;font color=&quot;#ff0000&quot;&gt;a) Proses Penerimaan Barang terdiri dari :&lt;/font&gt;&lt;/div&gt;&lt;div align=&quot;left&quot;&gt;&lt;font color=&quot;#ff0000&quot;&gt;&lt;span style=&quot;white-space: pre;&quot;&gt;&#x9;&lt;/span&gt;- Penerimaan barang&lt;/font&gt;&lt;/div&gt;&lt;div align=&quot;left&quot;&gt;&lt;font color=&quot;#ff0000&quot;&gt;&lt;span style=&quot;white-space: pre;&quot;&gt;&#x9;&lt;/span&gt;- Pengecekan kondisi barang&lt;/font&gt;&lt;/div&gt;" style="text;html=1;strokeColor=none;fillColor=none;align=left;verticalAlign=middle;whiteSpace=wrap;rounded=0;" vertex="1" parent="miPyuxprOac5JMghwZEi-71">
          <mxGeometry y="104" width="310" height="35" as="geometry" />
        </mxCell>
        <mxCell id="miPyuxprOac5JMghwZEi-76" value="&lt;div align=&quot;left&quot;&gt;&amp;nbsp;&amp;nbsp;&lt;font color=&quot;#0000ff&quot;&gt; b) Proses Penempatan Barang terdiri dari :&lt;/font&gt;&lt;/div&gt;&lt;div align=&quot;left&quot;&gt;&lt;font color=&quot;#0000ff&quot;&gt;&lt;span style=&quot;&quot;&gt;&lt;span style=&quot;white-space: pre;&quot;&gt;&amp;nbsp;&amp;nbsp;&amp;nbsp;&amp;nbsp;&lt;/span&gt;&lt;/span&gt;&amp;nbsp;&amp;nbsp;&amp;nbsp; - Input data pada sistem secara scan (QRCode / Barcode) atau secara manual&lt;/font&gt;&lt;/div&gt;&lt;div align=&quot;left&quot;&gt;&lt;font color=&quot;#0000ff&quot;&gt;&lt;span style=&quot;&quot;&gt;&lt;span style=&quot;white-space: pre;&quot;&gt;&amp;nbsp;&amp;nbsp;&amp;nbsp;&amp;nbsp;&lt;/span&gt;&lt;/span&gt;&amp;nbsp;&amp;nbsp;&amp;nbsp; - Pilih gudang, baris, lantai, kolom, rak tujuan penempatan barang&lt;br&gt;&lt;span style=&quot;&quot;&gt;&lt;span style=&quot;white-space: pre;&quot;&gt;&amp;nbsp;&amp;nbsp;&amp;nbsp;&amp;nbsp;&lt;/span&gt;&lt;/span&gt;&amp;nbsp;&amp;nbsp;&amp;nbsp; - Menunjuk driver forklift yang akan menempatkan barang ke lokasi rak tujuan&lt;br&gt;&lt;/font&gt;&lt;/div&gt;&lt;div align=&quot;left&quot;&gt;&lt;font color=&quot;#0000ff&quot;&gt;&lt;span style=&quot;&quot;&gt;&lt;span style=&quot;white-space: pre;&quot;&gt;&amp;nbsp;&amp;nbsp;&amp;nbsp;&amp;nbsp;    &lt;/span&gt;&lt;/span&gt;- Memberikan status &amp;amp; catatan untuk kondisi barang yang diterima&lt;/font&gt;&lt;/div&gt;&lt;div align=&quot;left&quot;&gt;&lt;font color=&quot;#0000ff&quot;&gt;&amp;nbsp;&amp;nbsp;&amp;nbsp;&amp;nbsp;&amp;nbsp;&amp;nbsp;&amp;nbsp; - Jika barang yang diterima dengan kondisi baik, user melanjutkan membuat penugasan penempatan barang, mencetak QR / Barcode dan menempelkan pada barang&lt;br&gt;&lt;/font&gt;&lt;/div&gt;&lt;div align=&quot;left&quot;&gt;&lt;font color=&quot;#0000ff&quot;&gt;&amp;nbsp;&amp;nbsp;&amp;nbsp;&amp;nbsp;&amp;nbsp;&amp;nbsp;&amp;nbsp; - Jika barang yang diterima dengan kondisi buruk dan akan dilakukan pengembalian, user bisa mengubah statusnya mejadi &quot;reject incoming goods&quot; dan menyertakan catatannya&lt;/font&gt;&lt;br&gt;&lt;/div&gt;" style="text;html=1;strokeColor=none;fillColor=none;align=left;verticalAlign=middle;whiteSpace=wrap;rounded=0;" vertex="1" parent="miPyuxprOac5JMghwZEi-71">
          <mxGeometry y="150" width="310" height="240" as="geometry" />
        </mxCell>
      </root>
    </mxGraphModel>
  </diagram>
</mxfile>
